<?xml version="1.0" encoding="UTF-8" standalone="no"?><!DOCTYPE svg PUBLIC "-//W3C//DTD SVG 1.1//EN" "http://www.w3.org/Graphics/SVG/1.1/DTD/svg11.dtd">
<svg width="100%" height="100%" viewBox="0 0 3750 1417" version="1.1"
    xmlns="http://www.w3.org/2000/svg"
    xmlns:xlink="http://www.w3.org/1999/xlink" xml:space="preserve"
    xmlns:serif="http://www.serif.com/" style="fill-rule:evenodd;clip-rule:evenodd;stroke-linecap:round;">
    <rect x="0" y="0" width="3750" height="916.667" style="fill:url(#_Linear1);"/>
    <g opacity="0.7">
        <circle cx="125" cy="75" r="3.333" style="fill:#fff;"/>
        <circle cx="375" cy="166.667" r="4.167" style="fill:#fff;"/>
        <circle cx="625" cy="50" r="2.917" style="fill:#fff;"/>
        <circle cx="916.667" cy="229.167" r="3.75" style="fill:#fff;"/>
        <circle cx="1250" cy="104.167" r="2.5" style="fill:#fff;"/>
        <circle cx="1541.667" cy="250" r="4.583" style="fill:#fff;"/>
        <circle cx="1875" cy="41.667" r="3.333" style="fill:#fff;"/>
        <circle cx="2166.667" cy="187.5" r="2.917" style="fill:#fff;"/>
        <circle cx="2541.667" cy="83.333" r="4.167" style="fill:#fff;"/>
        <circle cx="2833.333" cy="229.167" r="2.5" style="fill:#fff;"/>
        <circle cx="3125" cy="62.5" r="3.75" style="fill:#fff;"/>
        <circle cx="3416.667" cy="158.333" r="3.333" style="fill:#fff;"/>
        <circle cx="3625" cy="250" r="2.917" style="fill:#fff;"/>
        <circle cx="250" cy="333.333" r="2.5" style="fill:#fff;"/>
        <circle cx="833.333" cy="375" r="3.333" style="fill:#fff;"/>
        <circle cx="1708.333" cy="312.5" r="2.917" style="fill:#fff;"/>
        <circle cx="2500" cy="395.833" r="3.75" style="fill:#fff;"/>
        <circle cx="3250" cy="354.167" r="2.5" style="fill:#fff;"/>
        <circle cx="541.667" cy="437.5" r="3.333" style="fill:#fff;"/>
        <circle cx="1333.333" cy="479.167" r="2.5" style="fill:#fff;"/>
        <circle cx="2083.333" cy="416.667" r="2.917" style="fill:#fff;"/>
        <circle cx="2916.667" cy="458.333" r="3.75" style="fill:#fff;"/>
        <circle cx="3541.667" cy="416.667" r="2.5" style="fill:#fff;"/>
    </g>
    <rect x="0" y="895.833" width="3750" height="520.833" style="fill:#0d0d10;"/>
    <rect x="0" y="916.667" width="3750" height="375" style="fill:url(#_Linear2);"/>
    <rect x="0" y="908.333" width="3750" height="16.667" style="fill:#1a1a22;"/>
    <rect x="0" y="1283.333" width="3750" height="16.667" style="fill:#1a1a22;"/>
    <rect x="0" y="925" width="3750" height="8.333" style="fill:#222230;fill-opacity:0.6;"/>
    <rect x="625" y="1250" width="2500" height="125" style="fill:url(#_Radial3);"/>
    <g id="Pasy">
        <g>
            <animateTransform attributeName="transform" type="translate" from="0" to="-500,0" dur="0.15s" repeatCount="indefinite"/>
            <path d="M333.333,1095.833l0,16.667c0,4.599 -3.734,8.333 -8.333,8.333l-316.667,0c-4.599,0 -8.333,-3.734 -8.333,-8.333l0,-16.667c0,-4.599 3.734,-8.333 8.333,-8.333l316.667,0c4.599,0 8.333,3.734 8.333,8.333Z" style="fill:#ccc;fill-opacity:0.55;"/>
            <path d="M916.667,1095.833l0,16.667c0,4.599 -3.734,8.333 -8.333,8.333l-316.667,0c-4.599,0 -8.333,-3.734 -8.333,-8.333l0,-16.667c0,-4.599 3.734,-8.333 8.333,-8.333l316.667,0c4.599,0 8.333,3.734 8.333,8.333Z" style="fill:#ccc;fill-opacity:0.55;"/>
            <path d="M1500,1095.833l0,16.667c0,4.599 -3.734,8.333 -8.333,8.333l-316.667,0c-4.599,0 -8.333,-3.734 -8.333,-8.333l0,-16.667c0,-4.599 3.734,-8.333 8.333,-8.333l316.667,0c4.599,0 8.333,3.734 8.333,8.333Z" style="fill:#ccc;fill-opacity:0.55;"/>
            <path d="M2083.333,1095.833l0,16.667c0,4.599 -3.734,8.333 -8.333,8.333l-316.667,0c-4.599,0 -8.333,-3.734 -8.333,-8.333l0,-16.667c0,-4.599 3.734,-8.333 8.333,-8.333l316.667,0c4.599,0 8.333,3.734 8.333,8.333Z" style="fill:#ccc;fill-opacity:0.55;"/>
            <path d="M2666.667,1095.833l0,16.667c0,4.599 -3.734,8.333 -8.333,8.333l-316.667,0c-4.599,0 -8.333,-3.734 -8.333,-8.333l0,-16.667c0,-4.599 3.734,-8.333 8.333,-8.333l316.667,0c4.599,0 8.333,3.734 8.333,8.333Z" style="fill:#ccc;fill-opacity:0.55;"/>
            <path d="M3250,1095.833l0,16.667c0,4.599 -3.734,8.333 -8.333,8.333l-316.667,0c-4.599,0 -8.333,-3.734 -8.333,-8.333l0,-16.667c0,-4.599 3.734,-8.333 8.333,-8.333l316.667,0c4.599,0 8.333,3.734 8.333,8.333Z" style="fill:#ccc;fill-opacity:0.55;"/>
            <path d="M3833.333,1095.833l0,16.667c0,4.599 -3.734,8.333 -8.333,8.333l-316.667,0c-4.599,0 -8.333,-3.734 -8.333,-8.333l0,-16.667c0,-4.599 3.734,-8.333 8.333,-8.333l316.667,0c4.599,0 8.333,3.734 8.333,8.333Z" style="fill:#ccc;fill-opacity:0.55;"/>
        </g>
    </g>
    <g>
        <animateTransform attributeName="transform" type="translate" from="0,0" to="-2000,0" dur="0.2s" repeatCount="indefinite"/>
        <clipPath id="_clip4">
            <rect x="0" y="-332.426" width="3750" height="2081.518"/>
        </clipPath>
        <g clip-path="url(#_clip4)">
            <g opacity="0.55">
                <g>
                    <path d="M-273.102,749.388l854.267,0" style="fill:none;fill-rule:nonzero;stroke:#77b;stroke-width:12.2px;"/>
                    <path d="M-90.045,609.044l854.267,0" style="fill:none;fill-rule:nonzero;stroke:#88c;stroke-width:10.98px;"/>
                    <path d="M215.05,688.369l610.191,0" style="fill:none;fill-rule:nonzero;stroke:#99c;stroke-width:7.32px;"/>
                    <path d="M-273.102,749.388l854.267,0" style="fill:none;fill-rule:nonzero;stroke:#77b;stroke-width:12.2px;"/>
                    <path d="M642.184,566.33l671.21,0" style="fill:none;fill-rule:nonzero;stroke:#aad;stroke-width:9.15px;"/>
                    <path d="M398.107,822.61l1098.343,0" style="fill:none;fill-rule:nonzero;stroke:#88c;stroke-width:13.42px;"/>
                    <path d="M886.26,895.833l732.229,0" style="fill:none;fill-rule:nonzero;stroke:#99b;stroke-width:8.54px;"/>
                    <path d="M1740.527,639.553l732.229,0" style="fill:none;fill-rule:nonzero;stroke:#88c;stroke-width:10.98px;"/>
                    <path d="M1557.47,731.082l549.172,0" style="fill:none;fill-rule:nonzero;stroke:#aad;stroke-width:7.32px;"/>
                    <path d="M1984.603,840.916l976.305,0" style="fill:none;fill-rule:nonzero;stroke:#77b;stroke-width:12.2px;"/>
                    <path d="M2777.851,548.025l793.248,0" style="fill:none;fill-rule:nonzero;stroke:#99c;stroke-width:9.76px;"/>
                    <path d="M3363.875,792.101l793.248,0" style="fill:none;fill-rule:nonzero;stroke:#88c;stroke-width:12.2px;"/>
                    <path d="M2533.774,670.063l793.248,0" style="fill:none;fill-rule:nonzero;stroke:#88c;stroke-width:12.2px;"/>
                    <path d="M3392.875,670.063l793.248,0" style="fill:none;fill-rule:nonzero;stroke:#88c;stroke-width:12.2px;"/>
                    <path d="M2960.908,792.101l732.229,0" style="fill:none;fill-rule:nonzero;stroke:#aad;stroke-width:8.54px;"/>
                </g>
            </g>
        </g>
    </g>
    <g>
        <!-- <animateMotion path="M -4000,120 L 150,0 L 3200,120 Z" dur="3s" repeatCount="indefinite" calcMode="linear"/> -->
        <path d="M1374.313,1062.382c0,0 -110.082,-14.194 -170.792,-20.14c-51.699,-5.064 -190.011,-13.235 -190.011,-13.235c0,0 -24.307,-142.518 8.109,-185.868c32.417,-43.35 124.347,-81.617 182.937,-76.534c58.59,5.083 139.545,60.613 168.604,107.032c29.06,46.419 1.151,188.745 1.151,188.745l0,0Z"/>
        <path d="M2624.014,1085.676l-207.76,-6.862l-149.727,-9.565c0,0 3.864,-142.579 35.411,-189.574c31.547,-46.995 81.336,-81.393 165.065,-75.015c69.277,5.277 123.131,44.792 151.411,95.114c28.28,50.322 5.6,185.902 5.6,185.902Z"/>
        <circle cx="1196.032" cy="955.472" r="82.679" style="fill:#3e4140;"/>
        <circle cx="1192.588" cy="951.6" r="43.75" style="fill:#979797;"/>
        <path d="M1251.275,865.611c0,0 25.661,21.86 32.966,33.829c6.532,10.703 14.366,30.433 14.82,42.889c0.982,26.946 -7.23,46.109 -7.23,46.109l-12.035,13.671l-22.789,-7.952c0,0 -7.043,-41.46 -13.956,-58.395c-6.394,-15.661 -15.919,-46.62 -12.766,-48.053c0,0 8.792,-1.141 13.376,-6.331" style="fill:#d28f05;"/>
        <path d="M2432.309,1052.646c-46.45,-7.812 -77.826,-51.824 -70.022,-98.221c7.803,-46.397 51.85,-77.724 98.3,-69.911c46.45,7.812 77.826,51.824 70.022,98.221c-7.803,46.397 -51.85,77.724 -98.3,69.911Z" style="fill:#3e4140;"/>
        <path d="M2441.691,1016.466c-23.812,-4.005 -39.893,-26.589 -35.888,-50.401c4.005,-23.812 26.589,-39.893 50.401,-35.888c23.812,4.005 39.893,26.589 35.888,50.401c-4.005,23.812 -26.589,39.893 -50.401,35.888Z" style="fill:#979797;"/>
        <path d="M2376.812,1048.386c0,0 -21.68,-25.813 -26.898,-38.828c-4.666,-11.638 -9.119,-32.394 -7.501,-44.753c3.501,-26.736 15.072,-50.164 15.072,-50.164l19.145,-23.426l16.146,22.384c0,0 0.363,33.51 1.426,51.652c0.433,7.389 7.307,36.286 7.307,36.286c0,0 24.533,18.021 22.65,18.522c0,0 -15.635,32.96 -21.017,37.318" style="fill:#d28f05;"/>
        <path d="M880.935,588.034c31.596,6.927 65.571,12.382 107.738,12.765c33.57,9.25 68.041,14.596 103.119,17.309l80.285,39.775l-1.841,3.683l-25.258,-0.413c-31.114,-9.605 -63.526,-21.33 -93.72,-30.267c-4.426,-1.31 -6.033,3.777 -8.447,4.163l0,9.207l27.621,30.567l3.315,4.419l-10.312,1.841c-5.602,-11.251 -13.074,-21.462 -23.202,-30.199c-4.899,-2.018 -5.675,0.61 -7.94,7.519c-2.892,8.819 -4.442,18.425 -3.499,27.936l-10.455,1.598l-11.987,-10.169c-3.2,-14.929 -6.141,-27.53 -8.839,-37.933l-23.426,-0.404c13.372,15.591 27.276,34.212 35.117,49.803l-24.949,4.002c-4.051,1.053 -8.102,1.128 -12.153,0.368l-21.36,-2.21l-24.307,-18.414l-13.258,-58.189l-32.24,-26.76l0,-0Zm46.43,35.474l0.884,15.615l10.017,27.99l4.714,-3.83l7.66,-29.463l-23.275,-10.312Zm33.528,17.465c-3.746,0.738 -5.096,4.671 -5.821,9.438l-3.042,17.338l0.189,11.691c10.201,5.176 21.352,8.212 33.564,8.862c3.903,0.835 7.412,0.488 9.805,-3.205l-0.566,-6.6l-17.348,-22.627c-5.263,-6.676 -10.009,-13.251 -16.782,-14.896Zm46.386,-8.297l-0.947,10.344l4.341,12.472l5.468,16.028l3.394,0c6.029,-6.856 7.066,-17.007 9.051,-27.907l-0.943,-10.182l-20.365,-0.754l0,0Z"/>
        <!-- Koło lewe -->
        <g>
            <animateTransform attributeName="transform" type="rotate" from="0 1192.588 951.6" to="360 1192.588 951.6" dur="0.002s" repeatCount="indefinite"/>
            <path d="M1232.01,788.128c91.8,22.138 148.665,113.36 126.908,203.583c-21.757,90.223 -113.951,145.499 -205.751,123.361c-91.8,-22.138 -148.665,-113.36 -126.908,-203.583c21.757,-90.223 113.951,-145.499 205.751,-123.361Zm-14.622,20.688l-15.685,114.602c0,0 -0.161,3.13 3.008,4.796c3.076,1.617 6.323,-1.132 6.323,-1.132l82.051,-81.544c0,0 -20.663,-18.38 -32.889,-24.59c-12.226,-6.21 -42.808,-12.131 -42.808,-12.131l-0,0Zm81.869,42.59l-80.465,81.631c0,0 -3.27,3.98 -2.312,6.478c0.763,1.99 7.217,1.541 7.217,1.541l112.69,-23.157c0,0 0.715,-9.31 -13.281,-35.533c-11.612,-21.757 -23.849,-30.96 -23.849,-30.96Zm-84.033,128.426l58.953,100.555c0,0 24.113,-15.558 33.279,-25.455c9.126,-9.854 21.716,-33.927 21.716,-33.927l-103.354,-50.52c0,0 -10.491,-4.721 -12.824,-1.02c-2.632,4.176 2.23,10.367 2.23,10.367l-0,0Zm-93.298,-150.195c0,0 -22.917,18.866 -31.829,28.433c-9.273,9.955 -21.14,31.686 -21.14,31.686l97.371,46.323c0,0 5.156,-0.148 6.244,-1.512c1.129,-1.415 0.641,-6.149 0.641,-6.149l-51.287,-98.78Zm40.969,116.808l-96.564,-47.803c0,0 -10.041,28.31 -11.141,37.817c-3.486,30.12 2.545,44.099 2.545,44.099l103.561,-25.548c0,0 4.441,-0.771 5.14,-3.968c0.355,-1.622 -3.543,-4.597 -3.543,-4.597Zm63.713,3.553c0,0 -6.414,2.582 -7.302,5.361c-0.988,3.091 3.615,6.919 3.615,6.919l109.265,49.976c0,0 7.045,-21.437 9.905,-41.133c3.437,-23.67 -2.682,-41.971 -2.682,-41.971l-112.801,20.847l0,0Zm-97.162,-124.958c18.136,33.037 32.519,56.528 54.064,98.864c0,0 1.929,2.522 4.283,2.068c2.302,-0.444 2.702,-3.6 2.702,-3.6l19.974,-114.517c0,0 -21.826,-3.427 -43.314,0.789c-13.565,2.661 -37.71,16.396 -37.71,16.396Zm137.558,258.205l-55.692,-96.271c0,0 -5.651,-10.582 -11.615,-9.338c-4.69,0.978 -6.73,14.255 -6.73,14.255l-5.879,109.038c0,0 31.593,-0.365 44.537,-3.796c11.971,-3.173 35.378,-13.889 35.378,-13.889Zm-163.416,-18.313c0,0 21.711,20.728 32.376,25.516c11.086,4.977 42.622,8.924 42.622,8.924l8.635,-107.714c0,0 0.803,-13.614 -1.772,-14.283c-2.575,-0.669 -9.971,8.362 -9.971,8.362l-71.891,79.195l0,0Zm-47.477,-75.846c0,0 6.408,24.056 13.215,35.81c5.873,10.14 27.629,34.713 27.629,34.713l74.021,-79.699c0,0 3.315,-8.687 0.239,-12.452c-3.075,-3.765 -11.624,-4.602 -11.624,-4.602l-103.481,26.23l0,-0Z" style="fill:#212121;"/>
        </g>

        <!-- Koło prawe -->
        <g>
            <animateTransform attributeName="transform" type="rotate" from="0 2450.779 968.932" to="360 2450.779 968.932" dur="0.002s" repeatCount="indefinite"/>
            <path d="M2450.779,817.912c84.807,0 153.66,67.67 153.66,151.02c0,83.35 -68.853,151.02 -153.66,151.02c-84.807,0 -153.66,-67.67 -153.66,-151.02c0,-83.35 68.853,-151.02 153.66,-151.02Zm-8.41,21.14l10.434,103.356c0,0 0.518,2.767 3.636,3.554c3.026,0.764 5.282,-2.32 5.282,-2.32l54.467,-88.467c0,0 -21.91,-11.696 -33.891,-14.544c-11.981,-2.848 -39.928,-1.579 -39.928,-1.579l0,0Zm80.443,19.947l-53.064,88.209c0,0 -2.017,4.163 -0.655,6.142c1.085,1.577 6.626,-0.174 6.626,-0.174l93.509,-43.943c0,0 -1.336,-8.278 -19.076,-28.226c-14.719,-16.551 -27.34,-22.009 -27.34,-22.009Zm-46.326,129.815l72.64,75.378c0,0 17.777,-18.66 23.695,-29.23c5.893,-10.524 11.816,-34.192 11.816,-34.192l-100.87,-22.347c0,0 -10.154,-1.913 -11.411,1.809c-1.419,4.2 4.13,8.582 4.13,8.582l-0,-0Zm-113.076,-111.486c0,0 -16.036,21.296 -21.802,31.525c-6,10.644 -11.785,32.114 -11.785,32.114l94.763,19.942c0,0 4.47,-1.215 5.133,-2.635c0.687,-1.473 -0.735,-5.503 -0.735,-5.503l-65.574,-75.443l0,-0Zm60.361,93.354l-94.37,-21.404c0,0 -2.806,26.83 -1.765,35.362c3.298,27.03 11.507,37.965 11.507,37.965l85.036,-44.109c0,0 3.715,-1.608 3.652,-4.547c-0.032,-1.491 -4.061,-3.267 -4.061,-3.267l0,0Zm56.373,-10.312c0,0 -5.056,3.605 -5.247,6.218c-0.212,2.906 4.613,5.28 4.613,5.28l105.917,20.627c0,0 1.638,-20.199 -0.012,-37.996c-1.983,-21.389 -11.178,-36.079 -11.178,-36.079l-94.093,41.95l0,-0Zm-111.136,-88.639c22.789,25.024 40.293,42.506 68.016,74.931c0,0 2.215,1.796 4.175,0.904c1.917,-0.873 1.601,-3.712 1.601,-3.712l-6.672,-104.185c0,0 -19.777,1.603 -37.649,9.808c-11.283,5.18 -29.471,22.254 -29.471,22.254Zm174.458,196.466l-68.891,-72.324c0,0 -7.161,-8.049 -12.107,-5.707c-3.888,1.841 -2.874,13.863 -2.874,13.863l17.824,96.434c0,0 27.505,-6.971 38.084,-12.691c9.783,-5.291 27.963,-19.574 27.963,-19.574Zm-146.527,18.418c0,0 23.319,13.526 33.638,15.46c10.727,2.011 39.091,-1.182 39.091,-1.182l-15.139,-95.858c0,0 -2.165,-12.055 -4.554,-12.097c-2.388,-0.042 -6.945,9.4 -6.945,9.4l-46.091,84.278l-0,0Zm-57.419,-56.222c0,0 10.659,19.654 19.077,28.482c7.262,7.616 31.431,24.49 31.431,24.49l47.845,-85.167c0,0 1.065,-8.282 -2.413,-10.922c-3.478,-2.64 -11.117,-1.57 -11.117,-1.57l-84.823,44.687l0,-0Z" style="fill:#212121;"/>
        </g>
        
        <path d="M1175.101,661.69l276.212,-37.289l98.055,-15.192l134.884,-17.033l123.359,-4.143l142.265,5.524l113.707,17.954l147.313,52.02l147.774,52.02l54.322,22.097l52.48,8.286l71.355,14.271l103.58,33.146l67.672,40.511l49.718,29.923l36.368,35.447l34.527,40.051l5.524,7.366l2.762,46.035l0.46,15.652l1.381,13.35l9.207,12.89l9.207,9.667l12.43,10.128l-6.905,9.207l-17.954,7.826l-13.811,4.143l-38.209,4.604l-89.308,5.524l-94.373,0l0.921,-15.652l9.207,-24.037l5.985,-22.459l2.302,-15.652c0,0 2.874,-20.174 2.874,-30.225c0,-10.051 -2.874,-30.082 -2.874,-30.082l-2.302,-13.35l-15.652,-41.892l-10.588,-17.493l-13.35,-16.573l-16.112,-15.652l-18.414,-12.89l-23.478,-11.509l-25.78,-9.207l-23.938,-5.064l-23.938,-0.921l-36.828,1.841l-30.383,7.366l-26.7,12.89l-24.859,17.954l-19.795,22.097l-14.271,22.557l-14.731,33.146l-6.905,31.764l-2.302,31.764l0.46,36.828l2.762,24.859l3.683,23.938l-168.95,4.604l-301.071,-5.985l-442.4,-4.143l0.46,-25.32l6.445,-39.59l3.222,-26.24l-1.381,-32.225l-5.064,-28.542l-12.89,-32.225l-24.399,-37.749l-28.081,-27.161l-27.621,-18.414l-35.907,-14.271l-25.32,-5.242l-69.513,0l-29.463,8.464l-28.081,13.35l-27.621,20.256l-26.24,29.002l-22.097,37.749l-9.667,28.542l-4.604,27.161l1.381,31.764l5.064,25.78l8.747,25.32l0.46,5.524l-24.859,-4.143l-11.048,-14.271l-6.905,-7.826l-49.258,-31.764l-4.143,-10.128l-32.685,-55.703l10.588,-0.46l-19.335,-27.161l-0.921,-11.509l44.194,-5.064l-8.286,-33.606l-1.381,-36.828l30.383,-20.256l4.604,-14.731l-8.286,-10.588l0.255,-12.073l-6.7,-24.755l-0.504,-16.853l11.037,-2.022l31.764,3.222l72.109,-10.804l124.978,-21.421" style="fill:#fff;stroke:#000;stroke-width:0.08px;stroke-linejoin:round;stroke-miterlimit:1.5;"/>
        <path d="M1760.155,620.4l80.107,-2.785l84.239,4.627l59.96,6.106l71.24,12.725l129.359,39.173l168.581,60.214l-64.449,19.519l-55.611,14.547l-121.257,-10.956l-195.65,-17.954l-199.793,-22.557l43.273,-102.658l-0,0Zm-155.801,26.582l25.304,-10.701l38.777,-6.976l65.186,-5.156l-37.197,96.49l-145.471,-26.526l26.562,-27.559l26.839,-19.571l0,0Z"/>
    </g>
    <defs>
        <linearGradient id="_Linear1" x1="0" y1="0" x2="1" y2="0" gradientUnits="userSpaceOnUse" gradientTransform="matrix(0,916.666667,-916.666667,0,0,0)">
            <stop offset="0" style="stop-color:#050510;stop-opacity:1"/>
            <stop offset="1" style="stop-color:#101028;stop-opacity:1"/>
        </linearGradient>
        <linearGradient id="_Linear2" x1="0" y1="0" x2="1" y2="0" gradientUnits="userSpaceOnUse" gradientTransform="matrix(0,375,-375,0,0,916.666667)">
            <stop offset="0" style="stop-color:#18181f;stop-opacity:1"/>
            <stop offset="1" style="stop-color:#0d0d14;stop-opacity:1"/>
        </linearGradient>
        <radialGradient id="_Radial3" cx="0" cy="0" r="1" gradientUnits="userSpaceOnUse" gradientTransform="matrix(1250,0,0,1250,1875,1250)">
            <stop offset="0" style="stop-color:#2a2a50;stop-opacity:0.5"/>
            <stop offset="1" style="stop-color:#0a0a0f;stop-opacity:0"/>
        </radialGradient>
    </defs>
</svg>