<?xml version="1.0" encoding="UTF-8" standalone="no"?><!DOCTYPE svg PUBLIC "-//W3C//DTD SVG 1.1//EN" "http://www.w3.org/Graphics/SVG/1.1/DTD/svg11.dtd">
<svg width="100%" height="100%" viewBox="0 0 21334 9000" version="1.1"
    xmlns="http://www.w3.org/2000/svg"
    xmlns:xlink="http://www.w3.org/1999/xlink" xml:space="preserve"
    xmlns:serif="http://www.serif.com/" style="fill-rule:evenodd;clip-rule:evenodd;stroke-linecap:round;stroke-linejoin:round;stroke-miterlimit:1.5;">
    <!-- Tył koła lewego -->
    <circle cx="7528.138" cy="5413.216" r="424.299" style="fill:#3e4140;"/>
    <circle cx="7510.464" cy="5393.346" r="224.521" style="fill:#979797;"/>
    <path d="M7811.634,4952.062c0,0 131.691,112.181 169.175,173.605c33.52,54.928 73.723,156.176 76.053,220.099c5.04,138.283 -37.104,236.625 -37.104,236.625l-61.764,70.156l-116.952,-40.808c0,0 -36.142,-212.769 -71.622,-299.677c-32.812,-80.371 -81.696,-239.246 -65.514,-246.602c0,0 45.117,-5.856 68.644,-32.492" style="fill:#d28f05;"/>
    <!-- Tył koła prawego -->
    <path d="M13872.527,5911.899c-238.374,-40.092 -399.391,-265.952 -359.344,-504.056c40.046,-238.105 266.088,-398.866 504.462,-358.774c238.374,40.092 399.391,265.952 359.344,504.056c-40.046,238.105 -266.088,398.866 -504.462,358.774Z" style="fill:#3e4140;"/>
    
    <path d="M13920.674,5726.228c-122.2,-20.553 -204.725,-136.45 -184.172,-258.65c20.553,-122.2 136.45,-204.725 258.65,-184.172c122.2,20.553 204.725,136.45 184.172,258.65c-20.553,122.2 -136.45,204.725 -258.65,184.172Z" style="fill:#979797;"/>
    
    <path d="M13587.723,5890.037c0,0 -111.261,-132.47 -138.038,-199.26c-23.946,-59.727 -46.799,-166.241 -38.494,-229.664c17.965,-137.204 77.348,-257.433 77.348,-257.433l98.248,-120.221l82.86,114.873c0,0 1.864,171.969 7.319,265.07c2.222,37.918 37.497,186.216 37.497,186.216c0,0 125.901,92.481 116.239,95.051c0,0 -80.239,169.146 -107.858,191.511" style="fill:#d28f05;"/>
    
    <!-- Spoiler -->
    <path d="M5911.104,3527.577c162.146,35.55 336.499,63.544 552.895,65.51c172.276,47.468 349.174,74.907 529.192,88.829l412.013,204.117l-9.45,18.9l-129.622,-2.117c-159.674,-49.29 -326.004,-109.463 -480.958,-155.326c-22.714,-6.723 -30.958,19.385 -43.35,21.365l0,47.249l141.748,156.867l17.01,22.68l-52.919,9.45c-28.748,-57.738 -67.096,-110.142 -119.068,-154.978c-25.14,-10.356 -29.121,3.129 -40.748,38.586c-14.841,45.259 -22.795,94.555 -17.958,143.364l-53.654,8.203l-61.518,-52.185c-16.422,-76.612 -31.517,-141.279 -45.359,-194.667l-120.217,-2.071c68.624,80.009 139.976,175.571 180.215,255.58l-128.037,20.537c-20.79,5.404 -41.579,5.788 -62.369,1.89l-109.618,-11.34l-124.738,-94.498l-68.039,-298.615l-165.451,-137.329Zm238.271,182.046l4.536,80.135l51.407,143.638l24.192,-19.656l39.311,-151.198l-119.446,-52.919Zm172.063,89.63c-19.224,3.788 -26.152,23.971 -29.871,48.432l-15.61,88.976l0.968,59.995c52.348,26.56 109.575,42.144 172.244,45.48c20.029,4.285 38.036,2.503 50.319,-16.45l-2.903,-33.868l-89.025,-116.12c-27.01,-34.258 -51.367,-68.004 -86.122,-76.445Zm238.045,-42.577l-4.858,53.084l22.276,64.003l28.062,82.251l17.418,0c30.941,-35.182 36.264,-87.275 46.448,-143.214l-4.838,-52.254l-104.508,-3.871Z"/>
    
    <path d="M7712.77,4554.432c471.102,113.607 762.927,581.747 651.271,1044.756c-111.656,463.009 -584.781,746.679 -1055.883,633.072c-471.102,-113.607 -762.927,-581.747 -651.271,-1044.756c111.656,-463.009 584.781,-746.679 1055.883,-633.072Zm-75.036,106.166l-80.492,588.121c0,0 -0.827,16.063 15.435,24.61c15.786,8.297 32.45,-5.811 32.45,-5.811l421.075,-418.47c0,0 -106.04,-94.322 -168.781,-126.194c-62.741,-31.871 -219.686,-62.257 -219.686,-62.257Zm420.14,218.565l-412.935,418.917c0,0 -16.782,20.424 -11.866,33.243c3.916,10.214 37.038,7.91 37.038,7.91l578.308,-118.838c0,0 3.668,-47.775 -68.157,-182.35c-59.592,-111.656 -122.388,-158.882 -122.388,-158.882Zm-431.243,659.065l302.538,516.032c0,0 123.745,-79.842 170.783,-130.632c46.832,-50.568 111.444,-174.108 111.444,-174.108l-530.397,-259.26c0,0 -53.84,-24.23 -65.813,-5.235c-13.508,21.431 11.446,53.202 11.446,53.202Zm-478.79,-770.779c0,0 -117.606,96.816 -163.342,145.914c-47.589,51.088 -108.485,162.606 -108.485,162.606l499.695,237.723c0,0 26.459,-0.762 32.042,-7.761c5.792,-7.262 3.289,-31.557 3.289,-31.557l-263.199,-506.925Zm210.247,599.439l-495.55,-245.317c0,0 -51.527,145.283 -57.173,194.072c-17.89,154.57 13.062,226.309 13.062,226.309l531.462,-131.11c0,0 22.792,-3.957 26.379,-20.363c1.821,-8.326 -18.18,-23.591 -18.18,-23.591Zm326.968,18.232c0,0 -32.916,13.251 -37.475,27.512c-5.07,15.86 18.551,35.509 18.551,35.509l560.734,256.468c0,0 36.156,-110.009 50.832,-211.086c17.637,-121.47 -13.763,-215.39 -13.763,-215.39l-578.88,106.986Zm-498.62,-641.268c93.072,169.539 166.885,290.095 277.451,507.356c0,0 9.897,12.945 21.981,10.614c11.816,-2.28 13.866,-18.475 13.866,-18.475l102.503,-587.684c0,0 -112.009,-17.587 -222.279,4.047c-69.616,13.658 -193.522,84.142 -193.522,84.142Zm705.929,1325.071l-285.801,-494.047c0,0 -28.998,-54.303 -59.606,-47.919c-24.067,5.02 -34.536,73.157 -34.536,73.157l-30.17,559.566c0,0 162.129,-1.875 228.557,-19.483c61.434,-16.284 181.556,-71.274 181.556,-71.274Zm-838.629,-93.979c0,0 111.417,106.372 166.149,130.944c56.894,25.543 218.731,45.797 218.731,45.797l44.314,-552.772c0,0 4.119,-69.866 -9.093,-73.298c-13.212,-3.432 -51.169,42.912 -51.169,42.912l-368.933,406.417Zm-243.645,-389.23c0,0 32.884,123.454 67.819,183.773c30.138,52.036 141.79,178.144 141.79,178.144l379.866,-409.006c0,0 17.011,-44.579 1.228,-63.902c-15.783,-19.323 -59.653,-23.616 -59.653,-23.616l-531.051,134.608Z" style="fill:#212121;"/>
    <path d="M13967.315,4707.278c435.217,0 788.559,347.271 788.559,775.013c0,427.741 -353.341,775.013 -788.559,775.013c-435.217,0 -788.559,-347.271 -788.559,-775.013c0,-427.741 353.341,-775.013 788.559,-775.013Zm-43.159,108.487l53.548,530.41c0,0 2.66,14.198 18.657,18.237c15.529,3.92 27.107,-11.906 27.107,-11.906l279.517,-454.001c0,0 -112.437,-60.023 -173.924,-74.639c-61.487,-14.616 -204.906,-8.101 -204.906,-8.101Zm412.823,102.363l-272.317,452.677c0,0 -10.351,21.364 -3.361,31.522c5.569,8.093 34.002,-0.892 34.002,-0.892l479.876,-225.509c0,0 -6.856,-42.482 -97.897,-144.852c-75.536,-84.935 -140.303,-112.946 -140.303,-112.946Zm-237.74,666.194l372.778,386.829c0,0 91.227,-95.76 121.6,-150.005c30.24,-54.008 60.64,-175.469 60.64,-175.469l-517.651,-114.679c0,0 -52.107,-9.819 -58.56,9.286c-7.281,21.554 21.194,44.039 21.194,44.039Zm-580.29,-572.13c0,0 -82.293,109.286 -111.886,161.781c-30.792,54.622 -60.479,164.805 -60.479,164.805l486.312,102.34c0,0 22.94,-6.236 26.341,-13.522c3.528,-7.56 -3.773,-28.243 -3.773,-28.243l-336.515,-387.16Zm309.763,479.079l-484.292,-109.843c0,0 -14.398,137.688 -9.056,181.473c16.925,138.715 59.051,194.83 59.051,194.83l436.392,-226.36c0,0 19.065,-8.253 18.743,-23.332c-0.163,-7.653 -20.839,-16.768 -20.839,-16.768Zm289.3,-52.922c0,0 -25.948,18.499 -26.925,31.91c-1.087,14.914 23.672,27.096 23.672,27.096l543.55,105.855c0,0 8.405,-103.656 -0.063,-194.992c-10.176,-109.763 -57.364,-185.15 -57.364,-185.15l-482.87,215.282Zm-570.335,-454.884c116.952,128.422 206.776,218.133 349.049,384.536c0,0 11.366,9.218 21.425,4.638c9.836,-4.478 8.216,-19.049 8.216,-19.049l-34.24,-534.662c0,0 -101.493,8.228 -193.21,50.332c-57.903,26.581 -151.24,114.205 -151.24,114.205Zm895.295,1008.236l-353.537,-371.158c0,0 -36.75,-41.304 -62.129,-29.287c-19.955,9.449 -14.75,71.141 -14.75,71.141l91.471,494.885c0,0 141.153,-35.772 195.442,-65.13c50.207,-27.151 143.503,-100.451 143.503,-100.451Zm-751.957,94.516c0,0 119.668,69.411 172.626,79.34c55.049,10.322 200.607,-6.068 200.607,-6.068l-77.691,-491.931c0,0 -11.113,-61.864 -23.37,-62.079c-12.257,-0.215 -35.639,48.237 -35.639,48.237l-236.532,432.5Zm-294.664,-288.523c0,0 54.702,100.859 97.901,146.166c37.267,39.085 161.297,125.677 161.297,125.677l245.533,-437.062c0,0 5.466,-42.502 -12.382,-56.049c-17.848,-13.547 -57.052,-8.059 -57.052,-8.059l-435.297,229.328Z" style="fill:#212121;"/>
    <path d="M7420.72,3905.572l1417.48,-191.36l503.205,-77.961l692.203,-87.411l633.059,-21.262l730.084,28.35l583.529,92.136l755.989,266.959l758.352,266.959l278.771,113.398l269.321,42.524l366.182,73.236l531.555,170.098l347.283,207.897l255.146,153.56l186.635,181.91l177.185,205.535l28.35,37.799l14.175,236.247l2.362,80.324l7.087,68.512l47.249,66.149l47.249,49.612l63.787,51.974l-35.437,47.249l-92.136,40.162l-70.874,21.262l-196.085,23.625l-458.318,28.35l-484.306,0l4.725,-80.324l47.249,-123.355l30.712,-115.255l11.812,-80.324c0,0 14.749,-103.528 14.749,-155.109c0,-51.581 -14.749,-154.375 -14.749,-154.375l-11.812,-68.512l-80.324,-214.984l-54.337,-89.774l-68.512,-85.049l-82.686,-80.324l-94.499,-66.149l-120.486,-59.062l-132.298,-47.249l-122.848,-25.987l-122.848,-4.725l-188.997,9.45l-155.923,37.799l-137.023,66.149l-127.573,92.136l-101.586,113.398l-73.236,115.761l-75.599,170.098l-35.437,163.01l-11.812,163.01l2.362,188.997l14.175,127.573l18.9,122.848l-867.025,23.625l-1545.053,-30.712l-2270.33,-21.262l2.362,-129.936l33.075,-203.172l16.537,-134.661l-7.087,-165.373l-25.987,-146.473l-66.149,-165.373l-125.211,-193.722l-144.11,-139.386l-141.748,-94.499l-184.272,-73.236l-129.936,-26.901l-356.732,0l-151.198,43.438l-144.11,68.512l-141.748,103.949l-134.661,148.835l-113.398,193.722l-49.612,146.473l-23.625,139.386l7.087,163.01l25.987,132.298l44.887,129.936l2.362,28.35l-127.573,-21.262l-56.699,-73.236l-35.437,-40.162l-252.784,-163.01l-21.262,-51.974l-167.735,-285.858l54.337,-2.362l-99.224,-139.386l-4.725,-59.062l226.797,-25.987l-42.524,-172.46l-7.087,-188.997l155.923,-103.949l23.625,-75.599l-42.524,-54.337l1.308,-61.956l-34.382,-127.041l-2.589,-86.485l56.642,-10.376l163.01,16.537l370.052,-55.443l641.367,-109.929" style="fill:#fff;stroke:#000;stroke-width:0.42px;"/>
    <path d="M10423.13,3693.677l411.096,-14.294l432.302,23.743l307.708,31.336l365.593,65.303l663.851,201.03l865.133,309.01l-330.744,100.168l-285.385,74.654l-622.272,-56.226l-1004.045,-92.136l-1025.307,-115.761l222.071,-526.828Zm-799.546,136.414l129.856,-54.918l198.998,-35.801l334.524,-26.46l-190.887,495.171l-746.537,-136.129l136.312,-141.431l137.733,-100.434Z"/>
</svg>