<?xml version="1.0" encoding="UTF-8" standalone="no"?>
<!DOCTYPE svg PUBLIC "-//W3C//DTD SVG 1.1//EN" "http://www.w3.org/Graphics/SVG/1.1/DTD/svg11.dtd">
<svg width="100%" height="100%" viewBox="0 0 2450 656" version="1.1"
    xmlns="http://www.w3.org/2000/svg"
    xmlns:xlink="http://www.w3.org/1999/xlink" xml:space="preserve"
    xmlns:serif="http://www.serif.com/" style="fill-rule:evenodd;clip-rule:evenodd;stroke-linejoin:round;stroke-miterlimit:2;">
    <g transform="matrix(1,0,0,1,-1418.664858,-846.618582)">
        <!-- Prawe koło -->
        <g transform="matrix(0.902062,0,0,0.900491,1730.150131,126.066012)">
            <path d="M1798.109,1114.593C1913.902,1114.593 2007.911,1207.148 2007.911,1321.15C2007.911,1435.152 1913.902,1527.708 1798.109,1527.708C1682.316,1527.708 1588.307,1435.152 1588.307,1321.15C1588.307,1207.148 1682.316,1114.593 1798.109,1114.593ZM1786.626,1143.507L1800.873,1284.873C1800.873,1284.873 1801.581,1288.657 1805.837,1289.733C1809.969,1290.778 1813.049,1286.56 1813.049,1286.56L1887.417,1165.559C1887.417,1165.559 1857.502,1149.562 1841.143,1145.666C1824.784,1141.771 1786.626,1143.507 1786.626,1143.507ZM1896.461,1170.789L1824.009,1291.437C1824.009,1291.437 1821.255,1297.131 1823.114,1299.838C1824.596,1301.995 1832.161,1299.601 1832.161,1299.601L1959.835,1239.498C1959.835,1239.498 1958.011,1228.175 1933.789,1200.892C1913.692,1178.254 1896.461,1170.789 1896.461,1170.789ZM1833.208,1348.344L1932.388,1451.442C1932.388,1451.442 1956.66,1425.92 1964.741,1411.463C1972.786,1397.068 1980.874,1364.696 1980.874,1364.696L1843.15,1334.132C1843.15,1334.132 1829.286,1331.515 1827.569,1336.607C1825.632,1342.352 1833.208,1348.344 1833.208,1348.344ZM1678.818,1195.859C1678.818,1195.859 1656.923,1224.987 1649.05,1238.977C1640.857,1253.535 1632.959,1282.901 1632.959,1282.901L1762.345,1310.177C1762.345,1310.177 1768.449,1308.515 1769.354,1306.573C1770.292,1304.558 1768.35,1299.046 1768.35,1299.046L1678.818,1195.859ZM1761.232,1323.544L1632.383,1294.268C1632.383,1294.268 1628.552,1330.965 1629.973,1342.635C1634.476,1379.605 1645.684,1394.561 1645.684,1394.561L1761.79,1334.232C1761.79,1334.232 1766.862,1332.032 1766.777,1328.013C1766.733,1325.974 1761.232,1323.544 1761.232,1323.544ZM1838.202,1309.439C1838.202,1309.439 1831.299,1314.369 1831.039,1317.944C1830.75,1321.919 1837.337,1325.165 1837.337,1325.165L1981.952,1353.378C1981.952,1353.378 1984.188,1325.751 1981.935,1301.408C1979.228,1272.154 1966.673,1252.062 1966.673,1252.062L1838.202,1309.439ZM1686.461,1188.203C1717.577,1222.43 1741.475,1246.34 1779.328,1290.69C1779.328,1290.69 1782.352,1293.147 1785.028,1291.926C1787.645,1290.733 1787.214,1286.849 1787.214,1286.849L1778.104,1144.35C1778.104,1144.35 1751.101,1146.543 1726.699,1157.765C1711.294,1164.849 1686.461,1188.203 1686.461,1188.203ZM1924.66,1456.919L1830.599,1357.998C1830.599,1357.998 1820.822,1346.989 1814.07,1350.192C1808.76,1352.711 1810.145,1369.153 1810.145,1369.153L1834.482,1501.05C1834.482,1501.05 1872.037,1491.516 1886.481,1483.692C1899.838,1476.455 1924.66,1456.919 1924.66,1456.919ZM1724.597,1482.11C1724.597,1482.11 1756.436,1500.609 1770.525,1503.256C1785.172,1506.007 1823.898,1501.638 1823.898,1501.638L1803.228,1370.528C1803.228,1370.528 1800.271,1354.04 1797.01,1353.983C1793.749,1353.926 1787.528,1366.839 1787.528,1366.839L1724.597,1482.11ZM1646.199,1405.212C1646.199,1405.212 1660.753,1432.093 1672.247,1444.169C1682.162,1454.586 1715.161,1477.664 1715.161,1477.664L1780.487,1361.178C1780.487,1361.178 1781.941,1349.85 1777.193,1346.24C1772.444,1342.629 1762.013,1344.092 1762.013,1344.092L1646.199,1405.212Z"/>
        </g>
        <!-- Lewe koło -->
        <g transform="matrix(0.976439,0.23547,-0.23506,0.974738,357.318182,-416.773603)">
            <path d="M1798.109,1114.593C1913.902,1114.593 2007.911,1207.148 2007.911,1321.15C2007.911,1435.152 1913.902,1527.708 1798.109,1527.708C1682.316,1527.708 1588.307,1435.152 1588.307,1321.15C1588.307,1207.148 1682.316,1114.593 1798.109,1114.593ZM1786.626,1143.507L1800.873,1284.873C1800.873,1284.873 1801.581,1288.657 1805.837,1289.733C1809.969,1290.778 1813.049,1286.56 1813.049,1286.56L1887.417,1165.559C1887.417,1165.559 1857.502,1149.562 1841.143,1145.666C1824.784,1141.771 1786.626,1143.507 1786.626,1143.507ZM1896.461,1170.789L1824.009,1291.437C1824.009,1291.437 1821.255,1297.131 1823.114,1299.838C1824.596,1301.995 1832.161,1299.601 1832.161,1299.601L1959.835,1239.498C1959.835,1239.498 1958.011,1228.175 1933.789,1200.892C1913.692,1178.254 1896.461,1170.789 1896.461,1170.789ZM1833.208,1348.344L1932.388,1451.442C1932.388,1451.442 1956.66,1425.92 1964.741,1411.463C1972.786,1397.068 1980.874,1364.696 1980.874,1364.696L1843.15,1334.132C1843.15,1334.132 1829.286,1331.515 1827.569,1336.607C1825.632,1342.352 1833.208,1348.344 1833.208,1348.344ZM1678.818,1195.859C1678.818,1195.859 1656.923,1224.987 1649.05,1238.977C1640.857,1253.535 1632.959,1282.901 1632.959,1282.901L1762.345,1310.177C1762.345,1310.177 1768.449,1308.515 1769.354,1306.573C1770.292,1304.558 1768.35,1299.046 1768.35,1299.046L1678.818,1195.859ZM1761.232,1323.544L1632.383,1294.268C1632.383,1294.268 1628.552,1330.965 1629.973,1342.635C1634.476,1379.605 1645.684,1394.561 1645.684,1394.561L1761.79,1334.232C1761.79,1334.232 1766.862,1332.032 1766.777,1328.013C1766.733,1325.974 1761.232,1323.544 1761.232,1323.544ZM1838.202,1309.439C1838.202,1309.439 1831.299,1314.369 1831.039,1317.944C1830.75,1321.919 1837.337,1325.165 1837.337,1325.165L1981.952,1353.378C1981.952,1353.378 1984.188,1325.751 1981.935,1301.408C1979.228,1272.154 1966.673,1252.062 1966.673,1252.062L1838.202,1309.439ZM1686.461,1188.203C1717.577,1222.43 1741.475,1246.34 1779.328,1290.69C1779.328,1290.69 1782.352,1293.147 1785.028,1291.926C1787.645,1290.733 1787.214,1286.849 1787.214,1286.849L1778.104,1144.35C1778.104,1144.35 1751.101,1146.543 1726.699,1157.765C1711.294,1164.849 1686.461,1188.203 1686.461,1188.203ZM1924.66,1456.919L1830.599,1357.998C1830.599,1357.998 1820.822,1346.989 1814.07,1350.192C1808.76,1352.711 1810.145,1369.153 1810.145,1369.153L1834.482,1501.05C1834.482,1501.05 1872.037,1491.516 1886.481,1483.692C1899.838,1476.455 1924.66,1456.919 1924.66,1456.919ZM1724.597,1482.11C1724.597,1482.11 1756.436,1500.609 1770.525,1503.256C1785.172,1506.007 1823.898,1501.638 1823.898,1501.638L1803.228,1370.528C1803.228,1370.528 1800.271,1354.04 1797.01,1353.983C1793.749,1353.926 1787.528,1366.839 1787.528,1366.839L1724.597,1482.11ZM1646.199,1405.212C1646.199,1405.212 1660.753,1432.093 1672.247,1444.169C1682.162,1454.586 1715.161,1477.664 1715.161,1477.664L1780.487,1361.178C1780.487,1361.178 1781.941,1349.85 1777.193,1346.24C1772.444,1342.629 1762.013,1344.092 1762.013,1344.092L1646.199,1405.212Z"/>
        </g>
        <!-- Spoiler -->
        <path d="M1418.665,846.619C1457.58,855.151 1499.425,861.869 1551.36,862.341C1592.706,873.733 1635.161,880.319 1678.366,883.66L1777.249,932.648L1774.981,937.184L1743.872,936.676C1705.55,924.846 1665.631,910.405 1628.442,899.398C1622.99,897.784 1621.012,904.05 1618.038,904.525L1618.038,915.865L1652.057,953.513L1656.14,958.956L1643.439,961.224C1636.54,947.367 1627.336,934.79 1614.863,924.03C1608.829,921.544 1607.874,924.781 1605.083,933.29C1601.521,944.153 1599.613,955.984 1600.773,967.698L1587.896,969.666L1573.132,957.142C1569.191,938.755 1565.568,923.235 1562.246,910.422L1533.394,909.925C1549.864,929.127 1566.988,952.062 1576.645,971.264L1545.917,976.193C1540.927,977.49 1535.938,977.582 1530.948,976.646L1504.64,973.925L1474.703,951.245L1458.373,879.578L1418.665,846.619ZM1475.85,890.31L1476.939,909.542L1489.276,944.015L1495.082,939.298L1504.517,903.01L1475.85,890.31ZM1517.145,911.821C1512.531,912.73 1510.869,917.574 1509.976,923.444L1506.23,944.799L1506.462,959.198C1519.026,965.572 1532.76,969.312 1547.801,970.113C1552.608,971.141 1556.929,970.714 1559.877,966.165L1559.18,958.036L1537.814,930.168C1531.332,921.946 1525.486,913.847 1517.145,911.821ZM1574.276,901.602L1573.11,914.342L1578.456,929.703L1585.191,949.444L1589.372,949.444C1596.797,941 1598.075,928.498 1600.519,915.072L1599.358,902.531L1574.276,901.602Z"/>
        <!-- Karoseria -->
        <path d="M1780.973,937.337L2121.168,891.411L2241.937,872.7L2408.066,851.722L2560,846.619L2735.22,853.422L2875.267,875.535L3056.705,939.605L3238.709,1003.675L3305.614,1030.891L3370.251,1041.097L3458.135,1058.674L3585.708,1099.497L3669.056,1149.392L3730.291,1186.247L3775.083,1229.905L3817.608,1279.233L3824.412,1288.305L3827.814,1345.005L3828.381,1364.282L3830.082,1380.725L3841.421,1396.601L3852.761,1408.508L3868.07,1420.981L3859.565,1432.321L3837.453,1441.96L3820.443,1447.063L3773.382,1452.733L3663.386,1459.537L3547.153,1459.537L3548.287,1440.259L3559.626,1410.654L3566.997,1382.993L3569.832,1363.715C3569.832,1363.715 3573.372,1338.869 3573.372,1326.489C3573.372,1314.11 3569.832,1289.439 3569.832,1289.439L3566.997,1272.997L3547.72,1221.4L3534.679,1199.855L3518.236,1179.443L3498.391,1160.165L3475.712,1144.289L3446.795,1130.115L3415.044,1118.775L3385.56,1112.538L3356.076,1111.404L3310.717,1113.672L3273.296,1122.744L3240.41,1138.619L3209.792,1160.732L3185.412,1187.948L3167.835,1215.73L3149.691,1256.554L3141.186,1295.676L3138.351,1334.799L3138.918,1380.158L3142.32,1410.776L3146.856,1440.259L2938.77,1445.929L2567.958,1438.558L2023.078,1433.455L2023.645,1402.271L2031.583,1353.509L2035.552,1321.191L2033.851,1281.501L2027.614,1246.348L2011.738,1206.658L1981.688,1160.165L1947.101,1126.713L1913.082,1104.033L1868.856,1086.456L1837.672,1080L1752.056,1080L1715.769,1090.425L1681.182,1106.868L1647.163,1131.816L1614.844,1167.536L1587.628,1214.029L1575.722,1249.183L1570.052,1282.635L1571.753,1321.758L1577.99,1353.509L1588.762,1384.694L1589.329,1391.498L1558.712,1386.395L1545.104,1368.818L1536.599,1359.179L1475.931,1320.057L1470.828,1307.583L1430.572,1238.977L1443.613,1238.41L1419.799,1204.957L1418.665,1190.783L1473.096,1184.546L1462.89,1143.155L1461.189,1097.796L1498.611,1072.848L1504.281,1054.705L1494.075,1041.664L1494.389,1026.794L1486.137,996.304L1485.515,975.548L1499.11,973.058L1538.232,977.027L1627.045,963.72L1780.973,937.337" style="fill:white;"/>
        <!-- Szyby -->
        <path d="M2501.551,886.483L2600.214,883.052L2703.967,888.75L2777.817,896.271L2865.559,911.944L3024.883,960.191L3232.515,1034.354L3153.136,1058.394L3084.644,1076.311L2935.299,1062.817L2694.328,1040.704L2448.254,1012.921L2501.551,886.483ZM2309.66,919.222L2340.826,906.042L2388.585,897.449L2468.871,891.099L2423.058,1009.94L2243.889,977.269L2276.604,943.326L2309.66,919.222Z"/>
    </g>
</svg>
